<?xml version="1.0" encoding="utf-8" ?>
<svg xmlns:inkscape="http://www.inkscape.org/namespaces/inkscape" style="" xmlns="http://www.w3.org/2000/svg" height="311.769145362" width="360.0" version="1.1" xmlns:xlink="http://www.w3.org/1999/xlink">
<title>
TriPhi Figure
</title>
<g style="display:none" inkscape:label="background" id="layer1" inkscape:groupmode="layer">
<polygon style="" fill-opacity="1" points="180.0,0.0 0.0,311.769145362 360.0,311.769145362" stroke-width="0px" id="boundary" fill="#e0ecf8" />
</g>
<g style="display:inline" inkscape:label="slim" id="layer2" inkscape:groupmode="layer">
<g style="" id="slim">
<polygon fill-opacity="1" style="" stroke-width="0px" fill="#5c84d0" points="180.0,0.0 201.246117975,155.884572681 291.246117975,192.683928477" />
<polygon fill-opacity="1" style="" stroke-width="0px" fill="#5c84d0" points="0.0,311.769145362 124.376941013,215.427181124 111.246117975,119.085216885" />
<polygon fill-opacity="1" style="" stroke-width="0px" fill="#5c84d0" points="360.0,311.769145362 214.376941013,252.22653692 137.50776405,311.769145362" />
</g>
</g>
<g style="display:inline" inkscape:label="squat" id="layer3" inkscape:groupmode="layer">
<g style="" id="squat">
<polygon fill-opacity="1" style="" stroke-width="0px" fill="#acc8e4" points="180.0,0.0 201.246117975,155.884572681 111.246117975,119.085216885" />
<polygon fill-opacity="1" style="" stroke-width="0px" fill="#acc8e4" points="0.0,311.769145362 124.376941013,215.427181124 137.50776405,311.769145362" />
<polygon fill-opacity="1" style="" stroke-width="0px" fill="#acc8e4" points="360.0,311.769145362 214.376941013,252.22653692 291.246117975,192.683928477" />
</g>
</g>
<g style="display:none" inkscape:label="ctrsq" id="layer4" inkscape:groupmode="layer">
<polygon fill-opacity="1" style="" stroke-width="0px" fill="#acc8e4" points="137.50776405,311.769145362 291.246117975,192.683928477 111.246117975,119.085216885" />
</g>
<g style="display:none" inkscape:label="ctrsl" id="layer5" inkscape:groupmode="layer">
<polygon fill-opacity="1" style="" stroke-width="0px" fill="#5c84d0" points="137.50776405,311.769145362 291.246117975,192.683928477 111.246117975,119.085216885" />
</g>
<g style="display:inline" inkscape:label="ctrbg" id="layer6" inkscape:groupmode="layer">
<polygon fill-opacity="1" style="" stroke-width="0px" fill="#e0ecf8" points="137.50776405,311.769145362 291.246117975,192.683928477 111.246117975,119.085216885" />
</g>
<defs>
<clipPath style="" id="trim">
<polygon style="" points="180.0,0.0 0.0,311.769145362 360.0,311.769145362" />
</clipPath>
</defs>
<g style="display:inline" inkscape:label="rays" id="layer7" inkscape:groupmode="layer">
<g style="" id="rays" clip-path="url(#trim)">
<line y1="0.0" stroke="black" stroke-width="3.000000px" x2="214.376941013" x1="180.0" y2="252.22653692" style="" />
<line y1="311.769145362" stroke="black" stroke-width="3.000000px" x2="201.246117975" x1="0.0" y2="155.884572681" style="" />
<line y1="311.769145362" stroke="black" stroke-width="3.000000px" x2="124.376941013" x1="360.0" y2="215.427181124" style="" />
</g>
</g>
<g style="display:inline" inkscape:label="glyph" id="layer8" inkscape:groupmode="layer">
<path style="" d="m -1.192,-21.88625 0,1.14088 c -4.66916,1.20429 -7.00373,5.6199 -7.00372,13.24686 -10e-6,8.26081 2.905,13.1201 8.71504,14.57789 l 0,-18.41251 c -2e-5,-2.68315 0.169,-4.64271 0.50706,-5.87869 0.33802,-1.23592 1.08276,-2.32398 2.23422,-3.26418 1.15142,-0.94014 2.54054,-1.41022 4.16737,-1.41025 2.85217,3e-5 5.49837,1.34162 7.93861,4.02476 2.44018,2.6832 3.66028,6.17978 3.66032,10.48974 0,4.03534 -1.25184,7.63756 -3.75539,10.80665 -2.50363,3.16911 -6.28014,4.9755 -11.32956,5.41917 l 0,13.02503 -3.42263,0 0,-13.02503 c -4.39451,-0.38029 -7.91749,-2.02294 -10.56897,-4.92795 -2.65149,-2.90501 -3.97723,-6.68153 -3.97723,-11.32956 0,-4.1832 1.20426,-7.60055 3.61278,-10.25205 2.40852,-2.65146 5.48255,-4.06171 9.2221,-4.23076 z m 5.13395,28.96563 c 6.6551,-0.99299 9.98266,-5.2924 9.98269,-12.89826 -3e-5,-3.50713 -0.71308,-6.44911 -2.13915,-8.82596 -1.42613,-2.37681 -3.10047,-3.56522 -5.02303,-3.56525 -0.69723,3e-5 -1.28351,0.24828 -1.75886,0.74474 -0.47538,0.49652 -0.77116,1.0828 -0.88734,1.75886 -0.11623,0.67609 -0.17433,2.00712 -0.17431,3.99307 z" transform="translate(180.000000 207.846097) scale(1.000000)" />
</g>
<g style="display:none" inkscape:label="labels" id="layer9" inkscape:groupmode="layer">
<g style="" id="labels">
<text y="-10.0" x="180.0" style="">A</text>
<text y="301.769145362" x="360.0" style="">C</text>
<text y="301.769145362" x="0.0" style="">B</text>
<text y="182.683928477" x="291.246117975" style="">E</text>
<text y="301.769145362" x="137.50776405" style="">D</text>
<text y="145.884572681" x="201.246117975" style="">G</text>
<text y="109.085216885" x="111.246117975" style="">F</text>
<text y="242.22653692" x="214.376941013" style="">I</text>
<text y="205.427181124" x="124.376941013" style="">H</text>
</g>
</g>
</svg>
