<?xml version="1.0" encoding="utf-8" ?>
<svg xmlns="http://www.w3.org/2000/svg" style="" version="1.1" xmlns:xlink="http://www.w3.org/1999/xlink" xmlns:inkscape="http://www.inkscape.org/namespaces/inkscape" viewBox="-96.000000 -83.138439 240.000000 207.846097">
<title>
TriPhi Tiles
</title>
<g style="display:inline" id="layer1" inkscape:groupmode="layer" inkscape:label="tile 0+">
<polygon points="24.000000000000014,0.0 26.832815729997485,20.784609690826528 14.832815729997483,15.878028917990576" fill="#acc8e4" stroke-width="0px" fill-opacity="1" style="" />
<polygon points="0.0,41.56921938165304 16.58359213500127,28.723624149821816 18.334368540005052,41.569219381653056" fill="#acc8e4" stroke-width="0px" fill-opacity="1" style="" />
<polygon points="48.00000000000001,41.56921938165307 28.58359213500127,33.63020492265777 38.832815729997485,25.691190463662483" fill="#acc8e4" stroke-width="0px" fill-opacity="1" style="" />
<polygon points="24.000000000000014,0.0 26.832815729997485,20.784609690826528 38.832815729997485,25.691190463662483" fill="#5c84d0" stroke-width="0px" fill-opacity="1" style="" />
<polygon points="0.0,41.56921938165304 16.58359213500127,28.723624149821816 14.832815729997483,15.878028917990576" fill="#5c84d0" stroke-width="0px" fill-opacity="1" style="" />
<polygon points="48.00000000000001,41.56921938165307 28.58359213500127,33.63020492265777 18.334368540005052,41.569219381653056" fill="#5c84d0" stroke-width="0px" fill-opacity="1" style="" />
<polygon points="18.334368540005052,41.569219381653056 38.832815729997485,25.691190463662483 14.832815729997483,15.878028917990576" fill="#e0ecf8" stroke-width="0px" fill-opacity="1" style="" />
</g>
<g style="display:inline" id="layer2" inkscape:groupmode="layer" inkscape:label="tile 00x">
<polygon points="-23.999999999999986,-2.1316282072803006e-14 -4.583592135001252,7.939014458995278 -14.832815729997467,15.878028917990564" fill="#acc8e4" stroke-width="0px" fill-opacity="1" style="" />
<polygon points="24.000000000000014,0.0 7.416407864998747,12.84559523183123 5.665631459994962,-8.14209523803069e-15" fill="#acc8e4" stroke-width="0px" fill-opacity="1" style="" />
<polygon points="0.0,41.56921938165304 -2.832815729997468,20.784609690826514 9.167184270002531,25.691190463662466" fill="#acc8e4" stroke-width="0px" fill-opacity="1" style="" />
<polygon points="-23.999999999999986,-2.1316282072803006e-14 -4.583592135001252,7.939014458995278 5.665631459994962,-8.14209523803069e-15" fill="#5c84d0" stroke-width="0px" fill-opacity="1" style="" />
<polygon points="24.000000000000014,0.0 7.416407864998747,12.84559523183123 9.167184270002531,25.691190463662466" fill="#5c84d0" stroke-width="0px" fill-opacity="1" style="" />
<polygon points="0.0,41.56921938165304 -2.832815729997468,20.784609690826514 -14.832815729997467,15.878028917990564" fill="#5c84d0" stroke-width="0px" fill-opacity="1" style="" />
<polygon points="9.167184270002531,25.691190463662466 -14.832815729997467,15.878028917990564 5.665631459994962,-8.14209523803069e-15" fill="#e0ecf8" stroke-width="0px" fill-opacity="1" style="" />
</g>
<g style="display:inline" id="layer3" inkscape:groupmode="layer" inkscape:label="tile 000+">
<polygon points="-23.999999999999986,-2.1316282072803006e-14 -4.583592135001246,-7.939014458995305 -14.832815729997455,-15.878028917990601" fill="#acc8e4" stroke-width="0px" fill-opacity="1" style="" />
<polygon points="3.267129650448422e-14,-41.56921938165307 -2.832815729997452,-20.784609690826542 9.16718427000255,-25.691190463662483" fill="#acc8e4" stroke-width="0px" fill-opacity="1" style="" />
<polygon points="24.000000000000014,0.0 7.416407864998757,-12.845595231831245 5.665631459994962,-8.14209523803069e-15" fill="#acc8e4" stroke-width="0px" fill-opacity="1" style="" />
<polygon points="-23.999999999999986,-2.1316282072803006e-14 -4.583592135001246,-7.939014458995305 5.665631459994962,-8.14209523803069e-15" fill="#5c84d0" stroke-width="0px" fill-opacity="1" style="" />
<polygon points="3.267129650448422e-14,-41.56921938165307 -2.832815729997452,-20.784609690826542 -14.832815729997455,-15.878028917990601" fill="#5c84d0" stroke-width="0px" fill-opacity="1" style="" />
<polygon points="24.000000000000014,0.0 7.416407864998757,-12.845595231831245 9.16718427000255,-25.691190463662483" fill="#5c84d0" stroke-width="0px" fill-opacity="1" style="" />
<polygon points="9.16718427000255,-25.691190463662483 5.665631459994962,-8.14209523803069e-15 -14.832815729997455,-15.878028917990601" fill="#e0ecf8" stroke-width="0px" fill-opacity="1" style="" />
</g>
<g style="display:inline" id="layer4" inkscape:groupmode="layer" inkscape:label="tile 0000x">
<polygon points="-47.999999999999964,-41.569219381653085 -28.583592135001233,-33.63020492265779 -38.83281572999745,-25.6911904636625" fill="#acc8e4" stroke-width="0px" fill-opacity="1" style="" />
<polygon points="3.267129650448422e-14,-41.56921938165307 -16.583592135001236,-28.723624149821838 -18.33436854000502,-41.56921938165308" fill="#acc8e4" stroke-width="0px" fill-opacity="1" style="" />
<polygon points="-23.999999999999986,-2.1316282072803006e-14 -26.832815729997453,-20.78460969082655 -14.832815729997455,-15.878028917990601" fill="#acc8e4" stroke-width="0px" fill-opacity="1" style="" />
<polygon points="-47.999999999999964,-41.569219381653085 -28.583592135001233,-33.63020492265779 -18.33436854000502,-41.56921938165308" fill="#5c84d0" stroke-width="0px" fill-opacity="1" style="" />
<polygon points="3.267129650448422e-14,-41.56921938165307 -16.583592135001236,-28.723624149821838 -14.832815729997455,-15.878028917990601" fill="#5c84d0" stroke-width="0px" fill-opacity="1" style="" />
<polygon points="-23.999999999999986,-2.1316282072803006e-14 -26.832815729997453,-20.78460969082655 -38.83281572999745,-25.6911904636625" fill="#5c84d0" stroke-width="0px" fill-opacity="1" style="" />
<polygon points="-14.832815729997455,-15.878028917990601 -38.83281572999745,-25.6911904636625 -18.33436854000502,-41.56921938165308" fill="#e0ecf8" stroke-width="0px" fill-opacity="1" style="" />
</g>
<g style="display:inline" id="layer5" inkscape:groupmode="layer" inkscape:label="tile 00000+">
<polygon points="-47.999999999999964,-41.569219381653085 -28.583592135001226,-49.50823384064837 -38.832815729997435,-57.44724829964367" fill="#acc8e4" stroke-width="0px" fill-opacity="1" style="" />
<polygon points="-23.999999999999954,-83.13843876330614 -26.832815729997435,-62.35382907247961 -14.832815729997435,-67.26040984531555" fill="#acc8e4" stroke-width="0px" fill-opacity="1" style="" />
<polygon points="3.267129650448422e-14,-41.56921938165307 -16.583592135001226,-54.41481461348431 -18.334368540005016,-41.56921938165308" fill="#acc8e4" stroke-width="0px" fill-opacity="1" style="" />
<polygon points="-47.999999999999964,-41.569219381653085 -28.583592135001226,-49.50823384064837 -18.334368540005016,-41.56921938165308" fill="#5c84d0" stroke-width="0px" fill-opacity="1" style="" />
<polygon points="-23.999999999999954,-83.13843876330614 -26.832815729997435,-62.35382907247961 -38.832815729997435,-57.44724829964367" fill="#5c84d0" stroke-width="0px" fill-opacity="1" style="" />
<polygon points="3.267129650448422e-14,-41.56921938165307 -16.583592135001226,-54.41481461348431 -14.832815729997435,-67.26040984531555" fill="#5c84d0" stroke-width="0px" fill-opacity="1" style="" />
<polygon points="-14.832815729997435,-67.26040984531555 -18.334368540005016,-41.56921938165308 -38.832815729997435,-57.44724829964367" fill="#e0ecf8" stroke-width="0px" fill-opacity="1" style="" />
</g>
<g style="display:inline" id="layer6" inkscape:groupmode="layer" inkscape:label="tile 00001+">
<polygon points="-47.999999999999964,-41.569219381653085 -50.83281572999745,-20.784609690826557 -38.83281572999745,-25.691190463662497" fill="#acc8e4" stroke-width="0px" fill-opacity="1" style="" />
<polygon points="-23.999999999999986,-2.1316282072803006e-14 -40.58359213500124,-12.845595231831263 -42.33436854000504,-2.8101361437828578e-14" fill="#acc8e4" stroke-width="0px" fill-opacity="1" style="" />
<polygon points="-71.99999999999999,-3.907985046680551e-14 -52.58359213500124,-7.939014458995324 -62.83281572999745,-15.878028917990619" fill="#acc8e4" stroke-width="0px" fill-opacity="1" style="" />
<polygon points="-47.999999999999964,-41.569219381653085 -50.83281572999745,-20.784609690826557 -62.83281572999745,-15.878028917990619" fill="#5c84d0" stroke-width="0px" fill-opacity="1" style="" />
<polygon points="-23.999999999999986,-2.1316282072803006e-14 -40.58359213500124,-12.845595231831263 -38.83281572999745,-25.691190463662497" fill="#5c84d0" stroke-width="0px" fill-opacity="1" style="" />
<polygon points="-71.99999999999999,-3.907985046680551e-14 -52.58359213500124,-7.939014458995324 -42.33436854000504,-2.8101361437828578e-14" fill="#5c84d0" stroke-width="0px" fill-opacity="1" style="" />
<polygon points="-42.33436854000504,-2.8101361437828578e-14 -62.83281572999745,-15.878028917990619 -38.83281572999745,-25.691190463662497" fill="#e0ecf8" stroke-width="0px" fill-opacity="1" style="" />
</g>
<g style="display:inline" id="layer7" inkscape:groupmode="layer" inkscape:label="tile 00011+">
<polygon points="-23.999999999999986,-2.1316282072803006e-14 -26.83281572999747,20.784609690826507 -14.832815729997467,15.878028917990566" fill="#acc8e4" stroke-width="0px" fill-opacity="1" style="" />
<polygon points="-4.2495870740802105e-15,41.56921938165304 -16.58359213500126,28.723624149821802 -18.33436854000506,41.569219381653035" fill="#acc8e4" stroke-width="0px" fill-opacity="1" style="" />
<polygon points="-48.00000000000001,41.56921938165303 -28.58359213500127,33.63020492265774 -38.83281572999748,25.691190463662448" fill="#acc8e4" stroke-width="0px" fill-opacity="1" style="" />
<polygon points="-23.999999999999986,-2.1316282072803006e-14 -26.83281572999747,20.784609690826507 -38.83281572999748,25.691190463662448" fill="#5c84d0" stroke-width="0px" fill-opacity="1" style="" />
<polygon points="-4.2495870740802105e-15,41.56921938165304 -16.58359213500126,28.723624149821802 -14.832815729997467,15.878028917990566" fill="#5c84d0" stroke-width="0px" fill-opacity="1" style="" />
<polygon points="-48.00000000000001,41.56921938165303 -28.58359213500127,33.63020492265774 -18.33436854000506,41.569219381653035" fill="#5c84d0" stroke-width="0px" fill-opacity="1" style="" />
<polygon points="-18.33436854000506,41.569219381653035 -38.83281572999748,25.691190463662448 -14.832815729997467,15.878028917990566" fill="#e0ecf8" stroke-width="0px" fill-opacity="1" style="" />
</g>
<g style="display:inline" id="layer8" inkscape:groupmode="layer" inkscape:label="tile 0002x">
<polygon points="3.267129650448422e-14,-41.56921938165307 19.416407864998767,-33.63020492265777 9.16718427000255,-25.69119046366248" fill="#acc8e4" stroke-width="0px" fill-opacity="1" style="" />
<polygon points="48.000000000000036,-41.56921938165304 31.416407864998767,-28.723624149821816 29.665631459994984,-41.569219381653056" fill="#acc8e4" stroke-width="0px" fill-opacity="1" style="" />
<polygon points="24.000000000000014,0.0 21.16718427000255,-20.784609690826528 33.16718427000255,-15.878028917990576" fill="#acc8e4" stroke-width="0px" fill-opacity="1" style="" />
<polygon points="3.267129650448422e-14,-41.56921938165307 19.416407864998767,-33.63020492265777 29.665631459994984,-41.569219381653056" fill="#5c84d0" stroke-width="0px" fill-opacity="1" style="" />
<polygon points="48.000000000000036,-41.56921938165304 31.416407864998767,-28.723624149821816 33.16718427000255,-15.878028917990576" fill="#5c84d0" stroke-width="0px" fill-opacity="1" style="" />
<polygon points="24.000000000000014,0.0 21.16718427000255,-20.784609690826528 9.16718427000255,-25.69119046366248" fill="#5c84d0" stroke-width="0px" fill-opacity="1" style="" />
<polygon points="33.16718427000255,-15.878028917990576 9.16718427000255,-25.69119046366248 29.665631459994984,-41.569219381653056" fill="#e0ecf8" stroke-width="0px" fill-opacity="1" style="" />
</g>
<g style="display:inline" id="layer9" inkscape:groupmode="layer" inkscape:label="tile 00020+">
<polygon points="3.267129650448422e-14,-41.56921938165307 19.416407864998774,-49.50823384064835 9.167184270002569,-57.44724829964365" fill="#acc8e4" stroke-width="0px" fill-opacity="1" style="" />
<polygon points="24.00000000000006,-83.13843876330611 21.167184270002572,-62.353829072479584 33.16718427000258,-67.26040984531552" fill="#acc8e4" stroke-width="0px" fill-opacity="1" style="" />
<polygon points="48.000000000000036,-41.56921938165304 31.41640786499878,-54.41481461348429 29.66563145999498,-41.569219381653056" fill="#acc8e4" stroke-width="0px" fill-opacity="1" style="" />
<polygon points="3.267129650448422e-14,-41.56921938165307 19.416407864998774,-49.50823384064835 29.66563145999498,-41.569219381653056" fill="#5c84d0" stroke-width="0px" fill-opacity="1" style="" />
<polygon points="24.00000000000006,-83.13843876330611 21.167184270002572,-62.353829072479584 9.167184270002569,-57.44724829964365" fill="#5c84d0" stroke-width="0px" fill-opacity="1" style="" />
<polygon points="48.000000000000036,-41.56921938165304 31.41640786499878,-54.41481461348429 33.16718427000258,-67.26040984531552" fill="#5c84d0" stroke-width="0px" fill-opacity="1" style="" />
<polygon points="33.16718427000258,-67.26040984531552 29.66563145999498,-41.569219381653056 9.167184270002569,-57.44724829964365" fill="#e0ecf8" stroke-width="0px" fill-opacity="1" style="" />
</g>
<g style="display:inline" id="layer10" inkscape:groupmode="layer" inkscape:label="tile 00022+">
<polygon points="48.000000000000036,-41.56921938165304 45.16718427000255,-20.784609690826517 57.16718427000255,-25.69119046366246" fill="#acc8e4" stroke-width="0px" fill-opacity="1" style="" />
<polygon points="72.00000000000001,2.4868995751603507e-14 55.41640786499876,-12.845595231831222 53.66563145999496,1.5369884640567703e-14" fill="#acc8e4" stroke-width="0px" fill-opacity="1" style="" />
<polygon points="24.000000000000014,0.0 43.41640786499876,-7.93901445899528 33.16718427000255,-15.878028917990576" fill="#acc8e4" stroke-width="0px" fill-opacity="1" style="" />
<polygon points="48.000000000000036,-41.56921938165304 45.16718427000255,-20.784609690826517 33.16718427000255,-15.878028917990576" fill="#5c84d0" stroke-width="0px" fill-opacity="1" style="" />
<polygon points="72.00000000000001,2.4868995751603507e-14 55.41640786499876,-12.845595231831222 57.16718427000255,-25.69119046366246" fill="#5c84d0" stroke-width="0px" fill-opacity="1" style="" />
<polygon points="24.000000000000014,0.0 43.41640786499876,-7.93901445899528 53.66563145999496,1.5369884640567703e-14" fill="#5c84d0" stroke-width="0px" fill-opacity="1" style="" />
<polygon points="53.66563145999496,1.5369884640567703e-14 33.16718427000255,-15.878028917990576 57.16718427000255,-25.69119046366246" fill="#e0ecf8" stroke-width="0px" fill-opacity="1" style="" />
</g>
<g style="display:inline" id="layer11" inkscape:groupmode="layer" inkscape:label="tile 0011x">
<polygon points="-72.0,-3.907985046680551e-14 -52.58359213500126,7.939014458995261 -62.83281572999748,15.87802891799055" fill="#acc8e4" stroke-width="0px" fill-opacity="1" style="" />
<polygon points="-23.999999999999986,-2.1316282072803006e-14 -40.583592135001254,12.84559523183121 -42.334368540005045,-2.8101361437828578e-14" fill="#acc8e4" stroke-width="0px" fill-opacity="1" style="" />
<polygon points="-48.0,41.56921938165303 -50.83281572999748,20.7846096908265 -38.83281572999747,25.691190463662448" fill="#acc8e4" stroke-width="0px" fill-opacity="1" style="" />
<polygon points="-72.0,-3.907985046680551e-14 -52.58359213500126,7.939014458995261 -42.334368540005045,-2.8101361437828578e-14" fill="#5c84d0" stroke-width="0px" fill-opacity="1" style="" />
<polygon points="-23.999999999999986,-2.1316282072803006e-14 -40.583592135001254,12.84559523183121 -38.83281572999747,25.691190463662448" fill="#5c84d0" stroke-width="0px" fill-opacity="1" style="" />
<polygon points="-48.0,41.56921938165303 -50.83281572999748,20.7846096908265 -62.83281572999748,15.87802891799055" fill="#5c84d0" stroke-width="0px" fill-opacity="1" style="" />
<polygon points="-38.83281572999747,25.691190463662448 -62.83281572999748,15.87802891799055 -42.334368540005045,-2.8101361437828578e-14" fill="#e0ecf8" stroke-width="0px" fill-opacity="1" style="" />
</g>
<g style="display:inline" id="layer12" inkscape:groupmode="layer" inkscape:label="tile 00111+">
<polygon points="-72.0,-3.907985046680551e-14 -74.83281572999748,20.78460969082649 -62.83281572999748,15.878028917990544" fill="#acc8e4" stroke-width="0px" fill-opacity="1" style="" />
<polygon points="-48.0,41.56921938165303 -64.58359213500125,28.72362414982178 -66.33436854000504,41.56921938165302" fill="#acc8e4" stroke-width="0px" fill-opacity="1" style="" />
<polygon points="-96.0,41.569219381653014 -76.58359213500125,33.630204922657725 -86.83281572999748,25.691190463662434" fill="#acc8e4" stroke-width="0px" fill-opacity="1" style="" />
<polygon points="-72.0,-3.907985046680551e-14 -74.83281572999748,20.78460969082649 -86.83281572999748,25.691190463662434" fill="#5c84d0" stroke-width="0px" fill-opacity="1" style="" />
<polygon points="-48.0,41.56921938165303 -64.58359213500125,28.72362414982178 -62.83281572999748,15.878028917990544" fill="#5c84d0" stroke-width="0px" fill-opacity="1" style="" />
<polygon points="-96.0,41.569219381653014 -76.58359213500125,33.630204922657725 -66.33436854000504,41.56921938165302" fill="#5c84d0" stroke-width="0px" fill-opacity="1" style="" />
<polygon points="-66.33436854000504,41.56921938165302 -86.83281572999748,25.691190463662434 -62.83281572999748,15.878028917990544" fill="#e0ecf8" stroke-width="0px" fill-opacity="1" style="" />
</g>
<g style="display:inline" id="layer13" inkscape:groupmode="layer" inkscape:label="tile 0012x">
<polygon points="-48.0,41.56921938165303 -28.583592135001265,49.50823384064833 -38.83281572999748,57.44724829964362" fill="#acc8e4" stroke-width="0px" fill-opacity="1" style="" />
<polygon points="0.0,41.56921938165304 -16.58359213500127,54.41481461348427 -18.334368540005052,41.569219381653035" fill="#acc8e4" stroke-width="0px" fill-opacity="1" style="" />
<polygon points="-24.00000000000001,83.1384387633061 -26.832815729997478,62.35382907247956 -14.832815729997481,67.26040984531551" fill="#acc8e4" stroke-width="0px" fill-opacity="1" style="" />
<polygon points="-48.0,41.56921938165303 -28.583592135001265,49.50823384064833 -18.334368540005052,41.569219381653035" fill="#5c84d0" stroke-width="0px" fill-opacity="1" style="" />
<polygon points="0.0,41.56921938165304 -16.58359213500127,54.41481461348427 -14.832815729997481,67.26040984531551" fill="#5c84d0" stroke-width="0px" fill-opacity="1" style="" />
<polygon points="-24.00000000000001,83.1384387633061 -26.832815729997478,62.35382907247956 -38.83281572999748,57.44724829964362" fill="#5c84d0" stroke-width="0px" fill-opacity="1" style="" />
<polygon points="-14.832815729997481,67.26040984531551 -38.83281572999748,57.44724829964362 -18.334368540005052,41.569219381653035" fill="#e0ecf8" stroke-width="0px" fill-opacity="1" style="" />
</g>
<g style="display:inline" id="layer14" inkscape:groupmode="layer" inkscape:label="tile 00121+">
<polygon points="-48.0,41.56921938165303 -50.832815729997485,62.35382907247956 -38.83281572999748,57.44724829964362" fill="#acc8e4" stroke-width="0px" fill-opacity="1" style="" />
<polygon points="-24.00000000000001,83.1384387633061 -40.583592135001275,70.29284353147486 -42.33436854000507,83.1384387633061" fill="#acc8e4" stroke-width="0px" fill-opacity="1" style="" />
<polygon points="-72.00000000000003,83.13843876330608 -52.58359213500128,75.19942430431081 -62.83281572999749,67.26040984531551" fill="#acc8e4" stroke-width="0px" fill-opacity="1" style="" />
<polygon points="-48.0,41.56921938165303 -50.832815729997485,62.35382907247956 -62.83281572999749,67.26040984531551" fill="#5c84d0" stroke-width="0px" fill-opacity="1" style="" />
<polygon points="-24.00000000000001,83.1384387633061 -40.583592135001275,70.29284353147486 -38.83281572999748,57.44724829964362" fill="#5c84d0" stroke-width="0px" fill-opacity="1" style="" />
<polygon points="-72.00000000000003,83.13843876330608 -52.58359213500128,75.19942430431081 -42.33436854000507,83.1384387633061" fill="#5c84d0" stroke-width="0px" fill-opacity="1" style="" />
<polygon points="-42.33436854000507,83.1384387633061 -62.83281572999749,67.26040984531551 -38.83281572999748,57.44724829964362" fill="#e0ecf8" stroke-width="0px" fill-opacity="1" style="" />
</g>
<g style="display:inline" id="layer15" inkscape:groupmode="layer" inkscape:label="tile 00122+">
<polygon points="0.0,41.56921938165304 -2.8328157299974777,62.35382907247957 9.167184270002526,57.44724829964363" fill="#acc8e4" stroke-width="0px" fill-opacity="1" style="" />
<polygon points="24.0,83.13843876330611 7.416407864998737,70.29284353147487 5.665631459994948,83.13843876330611" fill="#acc8e4" stroke-width="0px" fill-opacity="1" style="" />
<polygon points="-24.00000000000001,83.1384387633061 -4.5835921350012665,75.19942430431081 -14.832815729997481,67.26040984531551" fill="#acc8e4" stroke-width="0px" fill-opacity="1" style="" />
<polygon points="0.0,41.56921938165304 -2.8328157299974777,62.35382907247957 -14.832815729997481,67.26040984531551" fill="#5c84d0" stroke-width="0px" fill-opacity="1" style="" />
<polygon points="24.0,83.13843876330611 7.416407864998737,70.29284353147487 9.167184270002526,57.44724829964363" fill="#5c84d0" stroke-width="0px" fill-opacity="1" style="" />
<polygon points="-24.00000000000001,83.1384387633061 -4.5835921350012665,75.19942430431081 5.665631459994948,83.13843876330611" fill="#5c84d0" stroke-width="0px" fill-opacity="1" style="" />
<polygon points="5.665631459994948,83.13843876330611 -14.832815729997481,67.26040984531551 9.167184270002526,57.44724829964363" fill="#e0ecf8" stroke-width="0px" fill-opacity="1" style="" />
</g>
<g style="display:inline" id="layer16" inkscape:groupmode="layer" inkscape:label="tile 0020x">
<polygon points="24.000000000000014,0.0 43.416407864998746,7.939014458995298 33.16718427000254,15.878028917990585" fill="#acc8e4" stroke-width="0px" fill-opacity="1" style="" />
<polygon points="72.00000000000001,1.7763568394002505e-14 55.416407864998746,12.845595231831249 53.66563145999496,1.0978489028976931e-14" fill="#acc8e4" stroke-width="0px" fill-opacity="1" style="" />
<polygon points="48.0,41.56921938165306 45.16718427000254,20.784609690826535 57.16718427000253,25.691190463662487" fill="#acc8e4" stroke-width="0px" fill-opacity="1" style="" />
<polygon points="24.000000000000014,0.0 43.416407864998746,7.939014458995298 53.66563145999496,1.0978489028976931e-14" fill="#5c84d0" stroke-width="0px" fill-opacity="1" style="" />
<polygon points="72.00000000000001,1.7763568394002505e-14 55.416407864998746,12.845595231831249 57.16718427000253,25.691190463662487" fill="#5c84d0" stroke-width="0px" fill-opacity="1" style="" />
<polygon points="48.0,41.56921938165306 45.16718427000254,20.784609690826535 33.16718427000254,15.878028917990585" fill="#5c84d0" stroke-width="0px" fill-opacity="1" style="" />
<polygon points="57.16718427000253,25.691190463662487 33.16718427000254,15.878028917990585 53.66563145999496,1.0978489028976931e-14" fill="#e0ecf8" stroke-width="0px" fill-opacity="1" style="" />
</g>
<g style="display:inline" id="layer17" inkscape:groupmode="layer" inkscape:label="tile 00202+">
<polygon points="72.00000000000001,1.7763568394002505e-14 69.16718427000254,20.784609690826542 81.16718427000254,15.878028917990601" fill="#acc8e4" stroke-width="0px" fill-opacity="1" style="" />
<polygon points="96.0,41.569219381653085 79.41640786499875,28.723624149821838 77.66563145999496,41.56921938165308" fill="#acc8e4" stroke-width="0px" fill-opacity="1" style="" />
<polygon points="48.0,41.56921938165306 67.41640786499875,33.63020492265778 57.16718427000253,25.691190463662483" fill="#acc8e4" stroke-width="0px" fill-opacity="1" style="" />
<polygon points="72.00000000000001,1.7763568394002505e-14 69.16718427000254,20.784609690826542 57.16718427000253,25.691190463662483" fill="#5c84d0" stroke-width="0px" fill-opacity="1" style="" />
<polygon points="96.0,41.569219381653085 79.41640786499875,28.723624149821838 81.16718427000254,15.878028917990601" fill="#5c84d0" stroke-width="0px" fill-opacity="1" style="" />
<polygon points="48.0,41.56921938165306 67.41640786499875,33.63020492265778 77.66563145999496,41.56921938165308" fill="#5c84d0" stroke-width="0px" fill-opacity="1" style="" />
<polygon points="77.66563145999496,41.56921938165308 57.16718427000253,25.691190463662483 81.16718427000254,15.878028917990601" fill="#e0ecf8" stroke-width="0px" fill-opacity="1" style="" />
</g>
<g style="display:inline" id="layer18" inkscape:groupmode="layer" inkscape:label="tile 0022x">
<polygon points="0.0,41.56921938165304 19.41640786499873,49.508233840648344 9.167184270002519,57.44724829964363" fill="#acc8e4" stroke-width="0px" fill-opacity="1" style="" />
<polygon points="48.0,41.56921938165306 31.41640786499873,54.414814613484296 29.665631459994948,41.569219381653056" fill="#acc8e4" stroke-width="0px" fill-opacity="1" style="" />
<polygon points="23.999999999999982,83.13843876330611 21.167184270002515,62.353829072479584 33.167184270002515,67.26040984531554" fill="#acc8e4" stroke-width="0px" fill-opacity="1" style="" />
<polygon points="0.0,41.56921938165304 19.41640786499873,49.508233840648344 29.665631459994948,41.569219381653056" fill="#5c84d0" stroke-width="0px" fill-opacity="1" style="" />
<polygon points="48.0,41.56921938165306 31.41640786499873,54.414814613484296 33.167184270002515,67.26040984531554" fill="#5c84d0" stroke-width="0px" fill-opacity="1" style="" />
<polygon points="23.999999999999982,83.13843876330611 21.167184270002515,62.353829072479584 9.167184270002519,57.44724829964363" fill="#5c84d0" stroke-width="0px" fill-opacity="1" style="" />
<polygon points="33.167184270002515,67.26040984531554 9.167184270002519,57.44724829964363 29.665631459994948,41.569219381653056" fill="#e0ecf8" stroke-width="0px" fill-opacity="1" style="" />
</g>
<g style="display:inline" id="layer19" inkscape:groupmode="layer" inkscape:label="tile 00222+">
<polygon points="48.0,41.56921938165306 45.16718427000252,62.35382907247959 57.16718427000252,57.44724829964365" fill="#acc8e4" stroke-width="0px" fill-opacity="1" style="" />
<polygon points="71.99999999999999,83.13843876330613 55.416407864998725,70.29284353147489 53.66563145999493,83.13843876330613" fill="#acc8e4" stroke-width="0px" fill-opacity="1" style="" />
<polygon points="23.999999999999982,83.13843876330611 43.41640786499872,75.19942430431084 33.167184270002515,67.26040984531554" fill="#acc8e4" stroke-width="0px" fill-opacity="1" style="" />
<polygon points="48.0,41.56921938165306 45.16718427000252,62.35382907247959 33.167184270002515,67.26040984531554" fill="#5c84d0" stroke-width="0px" fill-opacity="1" style="" />
<polygon points="71.99999999999999,83.13843876330613 55.416407864998725,70.29284353147489 57.16718427000252,57.44724829964365" fill="#5c84d0" stroke-width="0px" fill-opacity="1" style="" />
<polygon points="23.999999999999982,83.13843876330611 43.41640786499872,75.19942430431084 53.66563145999493,83.13843876330613" fill="#5c84d0" stroke-width="0px" fill-opacity="1" style="" />
<polygon points="53.66563145999493,83.13843876330613 33.167184270002515,67.26040984531554 57.16718427000252,57.44724829964365" fill="#e0ecf8" stroke-width="0px" fill-opacity="1" style="" />
</g>
<g style="display:inline" id="layer20" inkscape:groupmode="layer" inkscape:label="tile 0102x">
<polygon points="48.000000000000036,-41.56921938165304 67.41640786499877,-33.63020492265775 57.16718427000256,-25.69119046366246" fill="#acc8e4" stroke-width="0px" fill-opacity="1" style="" />
<polygon points="96.00000000000003,-41.569219381653035 79.41640786499877,-28.723624149821802 77.66563145999498,-41.569219381653035" fill="#acc8e4" stroke-width="0px" fill-opacity="1" style="" />
<polygon points="72.00000000000003,1.4210854715202004e-14 69.16718427000255,-20.784609690826514 81.16718427000255,-15.878028917990566" fill="#acc8e4" stroke-width="0px" fill-opacity="1" style="" />
<polygon points="48.000000000000036,-41.56921938165304 67.41640786499877,-33.63020492265775 77.66563145999498,-41.569219381653035" fill="#5c84d0" stroke-width="0px" fill-opacity="1" style="" />
<polygon points="96.00000000000003,-41.569219381653035 79.41640786499877,-28.723624149821802 81.16718427000255,-15.878028917990566" fill="#5c84d0" stroke-width="0px" fill-opacity="1" style="" />
<polygon points="72.00000000000003,1.4210854715202004e-14 69.16718427000255,-20.784609690826514 57.16718427000256,-25.69119046366246" fill="#5c84d0" stroke-width="0px" fill-opacity="1" style="" />
<polygon points="81.16718427000255,-15.878028917990566 57.16718427000256,-25.69119046366246 77.66563145999498,-41.569219381653035" fill="#e0ecf8" stroke-width="0px" fill-opacity="1" style="" />
</g>
<g style="display:inline" id="layer21" inkscape:groupmode="layer" inkscape:label="tile 01020+">
<polygon points="72.00000000000003,-83.13843876330611 69.16718427000255,-62.35382907247958 81.16718427000255,-67.26040984531552" fill="#acc8e4" stroke-width="0px" fill-opacity="1" style="" />
<polygon points="96.00000000000003,-41.569219381653035 79.41640786499877,-54.41481461348428 77.66563145999498,-41.569219381653035" fill="#acc8e4" stroke-width="0px" fill-opacity="1" style="" />
<polygon points="48.000000000000036,-41.56921938165304 67.41640786499877,-49.50823384064833 57.16718427000256,-57.44724829964363" fill="#acc8e4" stroke-width="0px" fill-opacity="1" style="" />
<polygon points="72.00000000000003,-83.13843876330611 69.16718427000255,-62.35382907247958 57.16718427000256,-57.44724829964363" fill="#5c84d0" stroke-width="0px" fill-opacity="1" style="" />
<polygon points="96.00000000000003,-41.569219381653035 79.41640786499877,-54.41481461348428 81.16718427000255,-67.26040984531552" fill="#5c84d0" stroke-width="0px" fill-opacity="1" style="" />
<polygon points="48.000000000000036,-41.56921938165304 67.41640786499877,-49.50823384064833 77.66563145999498,-41.569219381653035" fill="#5c84d0" stroke-width="0px" fill-opacity="1" style="" />
<polygon points="77.66563145999498,-41.569219381653035 57.16718427000256,-57.44724829964363 81.16718427000255,-67.26040984531552" fill="#e0ecf8" stroke-width="0px" fill-opacity="1" style="" />
</g>
<g style="display:inline" id="layer22" inkscape:groupmode="layer" inkscape:label="tile 01022+">
<polygon points="96.00000000000003,-41.569219381653035 93.16718427000254,-20.784609690826514 105.16718427000254,-25.69119046366246" fill="#acc8e4" stroke-width="0px" fill-opacity="1" style="" />
<polygon points="120.0,7.105427357601002e-15 103.41640786499875,-12.845595231831224 101.66563145999496,9.81945910361123e-15" fill="#acc8e4" stroke-width="0px" fill-opacity="1" style="" />
<polygon points="72.00000000000003,1.4210854715202004e-14 91.41640786499875,-7.939014458995278 81.16718427000255,-15.878028917990566" fill="#acc8e4" stroke-width="0px" fill-opacity="1" style="" />
<polygon points="96.00000000000003,-41.569219381653035 93.16718427000254,-20.784609690826514 81.16718427000255,-15.878028917990566" fill="#5c84d0" stroke-width="0px" fill-opacity="1" style="" />
<polygon points="120.0,7.105427357601002e-15 103.41640786499875,-12.845595231831224 105.16718427000254,-25.69119046366246" fill="#5c84d0" stroke-width="0px" fill-opacity="1" style="" />
<polygon points="72.00000000000003,1.4210854715202004e-14 91.41640786499875,-7.939014458995278 101.66563145999496,9.81945910361123e-15" fill="#5c84d0" stroke-width="0px" fill-opacity="1" style="" />
<polygon points="101.66563145999496,9.81945910361123e-15 81.16718427000255,-15.878028917990566 105.16718427000254,-25.69119046366246" fill="#e0ecf8" stroke-width="0px" fill-opacity="1" style="" />
</g>
<g style="display:inline" id="layer23" inkscape:groupmode="layer" inkscape:label="tile 0120x">
<polygon points="72.00000000000003,1.4210854715202004e-14 91.41640786499876,7.939014458995313 81.16718427000254,15.8780289179906" fill="#acc8e4" stroke-width="0px" fill-opacity="1" style="" />
<polygon points="120.00000000000003,3.552713678800501e-14 103.41640786499876,12.845595231831265 101.66563145999498,2.738504154997432e-14" fill="#acc8e4" stroke-width="0px" fill-opacity="1" style="" />
<polygon points="96.0,41.56921938165308 93.16718427000254,20.78460969082655 105.16718427000254,25.6911904636625" fill="#acc8e4" stroke-width="0px" fill-opacity="1" style="" />
<polygon points="72.00000000000003,1.4210854715202004e-14 91.41640786499876,7.939014458995313 101.66563145999498,2.738504154997432e-14" fill="#5c84d0" stroke-width="0px" fill-opacity="1" style="" />
<polygon points="120.00000000000003,3.552713678800501e-14 103.41640786499876,12.845595231831265 105.16718427000254,25.6911904636625" fill="#5c84d0" stroke-width="0px" fill-opacity="1" style="" />
<polygon points="96.0,41.56921938165308 93.16718427000254,20.78460969082655 81.16718427000254,15.8780289179906" fill="#5c84d0" stroke-width="0px" fill-opacity="1" style="" />
<polygon points="105.16718427000254,25.6911904636625 81.16718427000254,15.8780289179906 101.66563145999498,2.738504154997432e-14" fill="#e0ecf8" stroke-width="0px" fill-opacity="1" style="" />
</g>
<g style="display:inline" id="layer24" inkscape:groupmode="layer" inkscape:label="tile 01202+">
<polygon points="120.00000000000003,3.552713678800501e-14 117.16718427000255,20.784609690826567 129.16718427000256,15.878028917990633" fill="#acc8e4" stroke-width="0px" fill-opacity="1" style="" />
<polygon points="144.00000000000003,41.56921938165313 127.41640786499877,28.72362414982187 125.66563145999497,41.569219381653106" fill="#acc8e4" stroke-width="0px" fill-opacity="1" style="" />
<polygon points="96.0,41.56921938165308 115.41640786499875,33.6302049226578 105.16718427000254,25.6911904636625" fill="#acc8e4" stroke-width="0px" fill-opacity="1" style="" />
<polygon points="120.00000000000003,3.552713678800501e-14 117.16718427000255,20.784609690826567 105.16718427000254,25.6911904636625" fill="#5c84d0" stroke-width="0px" fill-opacity="1" style="" />
<polygon points="144.00000000000003,41.56921938165313 127.41640786499877,28.72362414982187 129.16718427000256,15.878028917990633" fill="#5c84d0" stroke-width="0px" fill-opacity="1" style="" />
<polygon points="96.0,41.56921938165308 115.41640786499875,33.6302049226578 125.66563145999497,41.569219381653106" fill="#5c84d0" stroke-width="0px" fill-opacity="1" style="" />
<polygon points="125.66563145999497,41.569219381653106 105.16718427000254,25.6911904636625 129.16718427000256,15.878028917990633" fill="#e0ecf8" stroke-width="0px" fill-opacity="1" style="" />
</g>
<g style="display:inline" id="layer25" inkscape:groupmode="layer" inkscape:label="tile 0122x">
<polygon points="96.0,41.56921938165308 79.41640786499875,54.41481461348431 77.66563145999496,41.56921938165308" fill="#acc8e4" stroke-width="0px" fill-opacity="1" style="" />
<polygon points="72.0,83.13843876330614 69.16718427000252,62.353829072479606 81.16718427000252,67.26040984531555" fill="#acc8e4" stroke-width="0px" fill-opacity="1" style="" />
<polygon points="48.00000000000001,41.56921938165307 67.41640786499875,49.50823384064837 57.16718427000253,57.44724829964366" fill="#acc8e4" stroke-width="0px" fill-opacity="1" style="" />
<polygon points="96.0,41.56921938165308 79.41640786499875,54.41481461348431 81.16718427000252,67.26040984531555" fill="#5c84d0" stroke-width="0px" fill-opacity="1" style="" />
<polygon points="72.0,83.13843876330614 69.16718427000252,62.353829072479606 57.16718427000253,57.44724829964366" fill="#5c84d0" stroke-width="0px" fill-opacity="1" style="" />
<polygon points="48.00000000000001,41.56921938165307 67.41640786499875,49.50823384064837 77.66563145999496,41.56921938165308" fill="#5c84d0" stroke-width="0px" fill-opacity="1" style="" />
<polygon points="57.16718427000253,57.44724829964366 77.66563145999496,41.56921938165308 81.16718427000252,67.26040984531555" fill="#e0ecf8" stroke-width="0px" fill-opacity="1" style="" />
</g>
<g style="display:inline" id="layer26" inkscape:groupmode="layer" inkscape:label="tile 01220+">
<polygon points="96.0,41.56921938165308 93.16718427000252,62.353829072479606 105.16718427000252,57.44724829964366" fill="#acc8e4" stroke-width="0px" fill-opacity="1" style="" />
<polygon points="120.0,83.13843876330614 103.41640786499875,70.2928435314749 101.66563145999496,83.13843876330614" fill="#acc8e4" stroke-width="0px" fill-opacity="1" style="" />
<polygon points="72.0,83.13843876330614 91.41640786499875,75.19942430431084 81.16718427000252,67.26040984531555" fill="#acc8e4" stroke-width="0px" fill-opacity="1" style="" />
<polygon points="96.0,41.56921938165308 93.16718427000252,62.353829072479606 81.16718427000252,67.26040984531555" fill="#5c84d0" stroke-width="0px" fill-opacity="1" style="" />
<polygon points="120.0,83.13843876330614 103.41640786499875,70.2928435314749 105.16718427000252,57.44724829964366" fill="#5c84d0" stroke-width="0px" fill-opacity="1" style="" />
<polygon points="72.0,83.13843876330614 91.41640786499875,75.19942430431084 101.66563145999496,83.13843876330614" fill="#5c84d0" stroke-width="0px" fill-opacity="1" style="" />
<polygon points="101.66563145999496,83.13843876330614 81.16718427000252,67.26040984531555 105.16718427000252,57.44724829964366" fill="#e0ecf8" stroke-width="0px" fill-opacity="1" style="" />
</g>
<g style="display:inline" id="layer27" inkscape:groupmode="layer" inkscape:label="tile 0212x">
<polygon points="-24.000000000000025,83.13843876330608 -4.5835921350012905,91.07745322230139 -14.832815729997508,99.01646768129667" fill="#acc8e4" stroke-width="0px" fill-opacity="1" style="" />
<polygon points="23.99999999999998,83.13843876330611 7.416407864998707,95.98403399513734 5.665631459994927,83.1384387633061" fill="#acc8e4" stroke-width="0px" fill-opacity="1" style="" />
<polygon points="-4.770656129791287e-14,124.70765814495915 -2.8328157299975105,103.92304845413263 9.167184270002487,108.82962922696858" fill="#acc8e4" stroke-width="0px" fill-opacity="1" style="" />
<polygon points="-24.000000000000025,83.13843876330608 -4.5835921350012905,91.07745322230139 5.665631459994927,83.1384387633061" fill="#5c84d0" stroke-width="0px" fill-opacity="1" style="" />
<polygon points="23.99999999999998,83.13843876330611 7.416407864998707,95.98403399513734 9.167184270002487,108.82962922696858" fill="#5c84d0" stroke-width="0px" fill-opacity="1" style="" />
<polygon points="-4.770656129791287e-14,124.70765814495915 -2.8328157299975105,103.92304845413263 -14.832815729997508,99.01646768129667" fill="#5c84d0" stroke-width="0px" fill-opacity="1" style="" />
<polygon points="9.167184270002487,108.82962922696858 -14.832815729997508,99.01646768129667 5.665631459994927,83.1384387633061" fill="#e0ecf8" stroke-width="0px" fill-opacity="1" style="" />
</g>
<g style="display:inline" id="layer28" inkscape:groupmode="layer" inkscape:label="tile 02121+">
<polygon points="-24.000000000000025,83.13843876330608 -26.83281572999752,103.92304845413261 -14.83281572999751,99.01646768129667" fill="#acc8e4" stroke-width="0px" fill-opacity="1" style="" />
<polygon points="-4.770656129791287e-14,124.70765814495915 -16.58359213500131,111.86206291312791 -18.33436854000511,124.70765814495915" fill="#acc8e4" stroke-width="0px" fill-opacity="1" style="" />
<polygon points="-48.00000000000007,124.70765814495914 -28.583592135001318,116.76864368596387 -38.83281572999753,108.82962922696856" fill="#acc8e4" stroke-width="0px" fill-opacity="1" style="" />
<polygon points="-24.000000000000025,83.13843876330608 -26.83281572999752,103.92304845413261 -38.83281572999753,108.82962922696856" fill="#5c84d0" stroke-width="0px" fill-opacity="1" style="" />
<polygon points="-4.770656129791287e-14,124.70765814495915 -16.58359213500131,111.86206291312791 -14.83281572999751,99.01646768129667" fill="#5c84d0" stroke-width="0px" fill-opacity="1" style="" />
<polygon points="-48.00000000000007,124.70765814495914 -28.583592135001318,116.76864368596387 -18.33436854000511,124.70765814495915" fill="#5c84d0" stroke-width="0px" fill-opacity="1" style="" />
<polygon points="-18.33436854000511,124.70765814495915 -38.83281572999753,108.82962922696856 -14.83281572999751,99.01646768129667" fill="#e0ecf8" stroke-width="0px" fill-opacity="1" style="" />
</g>
<g style="display:inline" id="layer29" inkscape:groupmode="layer" inkscape:label="tile 02122+">
<polygon points="23.99999999999998,83.13843876330611 21.16718427000249,103.92304845413264 33.167184270002494,99.0164676812967" fill="#acc8e4" stroke-width="0px" fill-opacity="1" style="" />
<polygon points="47.99999999999995,124.7076581449592 31.416407864998696,111.86206291312794 29.665631459994902,124.70765814495918" fill="#acc8e4" stroke-width="0px" fill-opacity="1" style="" />
<polygon points="-4.770656129791287e-14,124.70765814495915 19.416407864998696,116.76864368596388 9.167184270002489,108.82962922696858" fill="#acc8e4" stroke-width="0px" fill-opacity="1" style="" />
<polygon points="23.99999999999998,83.13843876330611 21.16718427000249,103.92304845413264 9.167184270002489,108.82962922696858" fill="#5c84d0" stroke-width="0px" fill-opacity="1" style="" />
<polygon points="47.99999999999995,124.7076581449592 31.416407864998696,111.86206291312794 33.167184270002494,99.0164676812967" fill="#5c84d0" stroke-width="0px" fill-opacity="1" style="" />
<polygon points="-4.770656129791287e-14,124.70765814495915 19.416407864998696,116.76864368596388 29.665631459994902,124.70765814495918" fill="#5c84d0" stroke-width="0px" fill-opacity="1" style="" />
<polygon points="29.665631459994902,124.70765814495918 9.167184270002489,108.82962922696858 33.167184270002494,99.0164676812967" fill="#e0ecf8" stroke-width="0px" fill-opacity="1" style="" />
</g>
<g style="display:inline" id="layer30" inkscape:groupmode="layer" inkscape:label="tile 0222x">
<polygon points="23.99999999999998,83.13843876330611 43.41640786499871,91.07745322230141 33.167184270002494,99.01646768129669" fill="#acc8e4" stroke-width="0px" fill-opacity="1" style="" />
<polygon points="71.99999999999997,83.13843876330614 55.4164078649987,95.98403399513737 53.66563145999493,83.13843876330613" fill="#acc8e4" stroke-width="0px" fill-opacity="1" style="" />
<polygon points="47.99999999999995,124.70765814495917 45.16718427000249,103.92304845413264 57.16718427000248,108.82962922696859" fill="#acc8e4" stroke-width="0px" fill-opacity="1" style="" />
<polygon points="23.99999999999998,83.13843876330611 43.41640786499871,91.07745322230141 53.66563145999493,83.13843876330613" fill="#5c84d0" stroke-width="0px" fill-opacity="1" style="" />
<polygon points="71.99999999999997,83.13843876330614 55.4164078649987,95.98403399513737 57.16718427000248,108.82962922696859" fill="#5c84d0" stroke-width="0px" fill-opacity="1" style="" />
<polygon points="47.99999999999995,124.70765814495917 45.16718427000249,103.92304845413264 33.167184270002494,99.01646768129669" fill="#5c84d0" stroke-width="0px" fill-opacity="1" style="" />
<polygon points="57.16718427000248,108.82962922696859 33.167184270002494,99.01646768129669 53.66563145999493,83.13843876330613" fill="#e0ecf8" stroke-width="0px" fill-opacity="1" style="" />
</g>
<g style="display:inline" id="layer31" inkscape:groupmode="layer" inkscape:label="tile 02222+">
<polygon points="71.99999999999997,83.13843876330614 69.16718427000248,103.92304845413265 81.16718427000248,99.01646768129672" fill="#acc8e4" stroke-width="0px" fill-opacity="1" style="" />
<polygon points="95.99999999999993,124.7076581449592 79.41640786499869,111.86206291312794 77.66563145999488,124.70765814495918" fill="#acc8e4" stroke-width="0px" fill-opacity="1" style="" />
<polygon points="47.99999999999995,124.70765814495917 67.41640786499869,116.7686436859639 57.16718427000248,108.82962922696859" fill="#acc8e4" stroke-width="0px" fill-opacity="1" style="" />
<polygon points="71.99999999999997,83.13843876330614 69.16718427000248,103.92304845413265 57.16718427000248,108.82962922696859" fill="#5c84d0" stroke-width="0px" fill-opacity="1" style="" />
<polygon points="95.99999999999993,124.7076581449592 79.41640786499869,111.86206291312794 81.16718427000248,99.01646768129672" fill="#5c84d0" stroke-width="0px" fill-opacity="1" style="" />
<polygon points="47.99999999999995,124.70765814495917 67.41640786499869,116.7686436859639 77.66563145999488,124.70765814495918" fill="#5c84d0" stroke-width="0px" fill-opacity="1" style="" />
<polygon points="77.66563145999488,124.70765814495918 57.16718427000248,108.82962922696859 81.16718427000248,99.01646768129672" fill="#e0ecf8" stroke-width="0px" fill-opacity="1" style="" />
</g>
</svg>
