<?xml version="1.0" encoding="utf-8" ?>
<?xml-stylesheet href="../fonts/stylesheet.css" type="text/css" ?>
<svg xmlns:inkscape="http://www.inkscape.org/namespaces/inkscape" style="" xmlns="http://www.w3.org/2000/svg" height="320.0" width="440.0" version="1.1" xmlns:xlink="http://www.w3.org/1999/xlink">
<title>
Unit Pair
</title>
<polygon fill-opacity="0.7" style="" stroke-width="0px" fill="#acc8e4" points="220.0,296.0 58.196601125,15.7482923112 20.0,296.0" />
<polygon fill-opacity="0.7" style="" stroke-width="0px" fill="#5c84d0" points="220.0,296.0 58.196601125,15.7482923112 420.0,296.0" />
<polygon stroke="black" stroke-width="1.300000px" points="58.196601125,15.7482923112 420.0,296.0 20.0,296.0" style="" fill-opacity="0" />
<line y1="15.7482923112" stroke="black" stroke-width="1.300000px" fill-opacity="0" x2="220.0" x1="58.196601125" y2="296.0" style="" />
<path stroke="black" stroke-width="0.800000px" style="" d="M 320.0 288.5
L 320.0 303.5" />
<path stroke="black" stroke-width="0.800000px" style="" d="M 120.0 288.5
L 120.0 303.5" />
<path d="M 408.141458774 286.814413465
A 15.0,15.0 0 0,0 405.0,296.0" stroke="black" stroke-width="0.800000px" style="" fill-opacity="0" />
<path d="M 65.696601125 28.738673368
A 15.0,15.0 0 0,1 56.1709204495,30.6108835321" stroke="black" stroke-width="0.800000px" style="" fill-opacity="0" />
<path d="M 77.170267086 30.4452307679
A 24.0,24.0 0 0,1 54.9555120442,39.5284382647
M 54.5503759091 42.5009565089
A 27.0,27.0 0 0,0 79.5419753311,32.282348075" stroke="black" stroke-width="0.800000px" style="" fill-opacity="0" />
<path d="M 212.5 283.009618943
A 15.0,15.0 0 0,0 205.0,296.0
M 202.0 296.0
A 18.0,18.0 0 0,1 211.0,280.411542732" stroke="black" stroke-width="0.800000px" style="" fill-opacity="0" />
<text font-size="10.0" transform="rotate(-82.238756 39.0983005625,155.874146156)" text-anchor="middle" style="" y="149.874146156" x="39.0983005625" class="desc">exterior short</text>
<text font-size="10.0" transform="rotate(-82.238756 39.0983005625,155.874146156)" text-anchor="middle" style="" y="169.874146156" x="39.0983005625" class="name">q3</text>
<text font-size="10.0" transform="rotate(37.761244 239.098300563,155.874146156)" text-anchor="middle" style="" y="149.874146156" x="193.098300563" class="desc">exterior long</text>
<text font-size="10.0" transform="rotate(37.761244 239.098300563,155.874146156)" text-anchor="middle" style="" y="169.874146156" x="193.098300563" class="name">s3</text>
<text font-size="10.0" transform="rotate(60.000000 139.098300563,155.874146156)" text-anchor="middle" style="" y="149.874146156" x="129.098300563" class="desc">interior long</text>
<text font-size="10.0" transform="rotate(60.000000 139.098300563,155.874146156)" text-anchor="middle" style="" y="169.874146156" x="179.098300563" class="name">q2</text>
<text font-size="10.0" transform="rotate(60.000000 139.098300563,155.874146156)" text-anchor="middle" style="" y="149.874146156" x="179.098300563" class="name">s2</text>
<text font-size="10.0" style="" y="312.0" x="320.0" transform="rotate(0.000000 320.0,296.0)" text-anchor="middle" class="desc">interior short</text>
<text font-size="10.0" style="" y="312.0" x="120.0" transform="rotate(0.000000 120.0,296.0)" text-anchor="middle" class="desc">interior short</text>
<text font-size="10.0" style="" y="284.0" x="120.0" transform="rotate(0.000000 120.0,296.0)" text-anchor="middle" class="name">q1</text>
<text font-size="10.0" style="" y="284.0" x="320.0" transform="rotate(0.000000 320.0,296.0)" text-anchor="middle" class="name">s1</text>
<text font-size="10.0" style="" text-anchor="middle" y="55.285999201" x="64.2604063575" class="name">Q1</text>
<text font-size="10.0" style="" text-anchor="middle" y="290.0" x="34.0" class="name">Q2</text>
<text font-size="10.0" style="" text-anchor="middle" y="54.022526158" x="87.1635309492" class="name">S1</text>
<text font-size="10.0" style="" text-anchor="middle" y="286.76545613" x="194.628299239" class="name">Q3</text>
<text font-size="10.0" style="" text-anchor="middle" y="290.0" x="388.0" class="name">S2</text>
<text font-size="10.0" style="" text-anchor="middle" y="290.0" x="228.0" class="name">S3</text>
<text font-size="26.0" transform="rotate(0.000000 120.0,296.0)" text-anchor="middle" style="" y="252.0" x="104.0" class="name">S<tspan text-decoration="underline">q</tspan>uat</text>
<text font-size="26.0" transform="rotate(0.000000 320.0,296.0)" text-anchor="middle" style="" y="252.0" x="266.0" class="name"><tspan text-decoration="underline">S</tspan>lim</text>
</svg>
